<?xml version="1.0" standalone="yes"?>

<svg version="1.1" viewBox="0.0 0.0 175.1233595800525 189.21784776902888" fill="none" stroke="none" stroke-linecap="square" stroke-miterlimit="10" xmlns="http://www.w3.org/2000/svg" xmlns:xlink="http://www.w3.org/1999/xlink"><clipPath id="p.0"><path d="m0 0l175.12335 0l0 189.21785l-175.12335 0l0 -189.21785z" clip-rule="nonzero"></path></clipPath><g clip-path="url(#p.0)"><path fill="#000000" fill-opacity="0.0" d="m0 0l175.12335 0l0 189.21785l-175.12335 0z" fill-rule="nonzero"></path><path fill="#38761d" d="m26.779528 33.00571l0 0c0 -12.779631 10.359938 -23.139568 23.13957 -23.139568l92.55551 0l0 0c6.1369934 0 12.022629 2.437912 16.362137 6.777423c4.339508 4.339512 6.77742 10.225153 6.77742 16.362146l0 128.49252c0 12.779633 -10.359924 23.139572 -23.139557 23.139572l-92.55551 0c-12.779633 0 -23.13957 -10.35994 -23.13957 -23.139572z" fill-rule="nonzero"></path><path stroke="#000000" stroke-width="1.0" stroke-linejoin="round" stroke-linecap="butt" d="m26.779528 33.00571l0 0c0 -12.779631 10.359938 -23.139568 23.13957 -23.139568l92.55551 0l0 0c6.1369934 0 12.022629 2.437912 16.362137 6.777423c4.339508 4.339512 6.77742 10.225153 6.77742 16.362146l0 128.49252c0 12.779633 -10.359924 23.139572 -23.139557 23.139572l-92.55551 0c-12.779633 0 -23.13957 -10.35994 -23.13957 -23.139572z" fill-rule="nonzero"></path><path fill="#000000" fill-opacity="0.0" d="m31.223097 -20.931759l92.81889 0l0 134.96063l-92.81889 0z" fill-rule="nonzero"></path><path fill="#ffffff" d="m39.9731 33.323246q0 -0.625 0.0625 -2.1875q0.0625 -1.5625 0.0625 -3.25q0 -1.6875 0.0625 -3.1875q0.0625 -1.5 0.0625 -2.0q3.125 -3.375 5.1875 -4.0q2.0625 -0.625 3.3125 0.6875q1.25 1.3125 1.8125 4.1875q0.5625 2.875 0.8125 6.5q0.25 3.625 0.25 7.625q0 4.0 0.125 7.4375q0.125 3.4375 0.5 6.0625q0.375 2.625 1.375 3.5l42.875 0q2.625 0 3.75 -1.625q1.125 -1.625 1.3125 -4.25q0.1875 -2.625 -0.1875 -6.0q-0.375 -3.375 -0.6875 -6.9375q-0.3125 -3.5625 -0.25 -7.0q0.0625 -3.4375 1.125 -6.0625q1.0625 -2.625 3.3125 -4.25q2.25 -1.625 6.625 -1.625q1.625 2.375 2.0 5.1875q0.375 2.8125 0.1875 5.8125q-0.1875 3.0 -0.625 5.9375q-0.4375 2.9375 -0.4375 5.6875q0 7.375 0.9375 14.75q0.9375 7.375 2.0 14.750004q1.0625 7.375 2.0 14.6875q0.9375 7.3125 0.9375 14.4375q0.25 7.75 -1.0 11.0625q-1.25 3.3125 -3.125 3.0q-1.875 -0.3125 -4.1875 -3.8125q-2.3125 -3.5 -4.25 -9.375q-1.9375 -5.875 -3.125 -13.8125q-1.1875 -7.9375 -0.9375 -17.1875l-45.125 0q0.875 8.625 2.3125 16.25q1.4375 7.625 2.25 13.4375q0.8125 5.8125 0.625 9.25q-0.1875 3.4375 -2.5625 3.5625q-3.625 0 -6.125 -2.4375q-2.5 -2.4375 -4.3125 -6.6875q-1.8125 -4.25 -2.9375 -9.9375q-1.125 -5.6875 -1.875 -12.0q-0.75 -6.3125 -1.1875 -12.9375q-0.4375 -6.625004 -0.8125 -12.750004q-0.375 -6.125 -0.875 -11.4375q-0.5 -5.3125 -1.25 -9.0625z" fill-rule="nonzero"></path><path fill="#000000" fill-opacity="0.0" d="m72.16273 29.771654l104.22048 0l0 134.96063l-104.22048 0z" fill-rule="nonzero"></path><path fill="#ffffff" d="m83.66273 118.77666q0 -4.25 1.1875 -9.25q1.1875 -5.0 3.3125 -10.0625q2.125 -5.0625 5.125 -9.875q3.0 -4.8125 6.75 -8.5q3.75 -3.6875 8.125 -5.875q4.375 -2.1875 9.25 -2.1875q4.0 0 7.5 1.0625q3.5000076 1.0625 6.0000076 3.1875q2.5 2.125 3.9375 5.3125q1.4375 3.1875 1.4375 7.5625q-2.75 0 -4.4375 -1.4375q-1.6875 -1.4375 -3.125 -3.1875q-1.4375076 -1.75 -3.1250076 -3.125q-1.6875 -1.375 -4.3125 -1.375q-3.875 0 -7.4375 2.0q-3.5625 2.0 -6.625 5.375q-3.0625 3.375 -5.375 7.625q-2.3125 4.25 -4.0 8.5625q-1.6875 4.3125 -2.625 8.4375q-0.9375 4.125 -0.9375 7.125q0 6.5 1.9375 12.1875q1.9375 5.6875 5.5625 9.875q3.625 4.1875 9.0 6.5625q5.375 2.375 12.25 2.375q4.375 0 8.312508 -1.3125q3.9375 -1.3125 7.625 -2.875q3.6875 -1.5625 7.3125 -2.9375q3.625 -1.375 7.25 -1.375q0.5 0 1.4375 0.0625q0.9375 0.0625 1.75 0.3125q0.8125 0.25 1.4375 0.8125q0.625 0.5625 0.625 1.6875q0 4.5 -3.4375 7.625q-3.4375 3.125 -8.1875 5.0625q-4.75 1.9375 -9.875 2.8125q-5.125 0.875 -8.375 0.875q-9.500008 0 -17.750008 -3.0625q-8.25 -3.0625 -14.375 -8.6875q-6.125 -5.625 -9.625 -13.5625q-3.5 -7.9375 -3.5 -17.8125z" fill-rule="nonzero"></path><path fill="#000000" fill-opacity="0.0" d="m35.522945 98.769264l104.15747 70.29922l-19.937004 29.51181l-104.15748 -70.29921z" fill-rule="nonzero"></path><path fill="#ffffff" d="m34.333675 116.55127q0.05247879 -0.077690125 0.19663239 -0.26315308q0.1312027 -0.19421387 0.27114868 -0.40137482q0.1399498 -0.20715332 0.27535248 -0.37967682q0.1312027 -0.19421387 0.1661911 -0.2460022q0.6684303 -0.15208435 0.9669838 -0.063682556q0.31150436 0.09713745 0.35321045 0.37034607q0.050453186 0.26026154 -0.12095642 0.6535492q-0.17140579 0.39328766 -0.45163727 0.86392975q-0.2585373 0.46643066 -0.59091187 0.95843506q-0.3323784 0.49199677 -0.6080704 0.9280014q-0.2669449 0.42305756 -0.43380737 0.78170776q-0.1668663 0.3586502 -0.1290245 0.55384827l5.271126 3.5576553q0.32378006 0.21852875 0.5974426 0.12046814q0.28240967 -0.11100769 0.51403046 -0.4259491q0.24457169 -0.30620575 0.47266388 -0.75548553q0.24104309 -0.4405365 0.49957657 -0.9069748q0.2585373 -0.4664383 0.5384331 -0.88075256q0.30159378 -0.41851807 0.64977264 -0.6547928q0.36113358 -0.22753143 0.7643089 -0.23818207q0.41192245 -0.023590088 0.9558716 0.34353638q-0.0069084167 0.4289093 -0.204216 0.8047104q-0.1756134 0.3715973 -0.45516968 0.72959137q-0.25785828 0.35378265 -0.55457306 0.6813431q-0.29671478 0.32756805 -0.52412796 0.6641998q-0.61227417 0.90631866 -1.1209373 1.8825607q-0.49571228 0.984993 -0.97847366 1.9787216q-0.46980667 1.0024643 -0.97846985 1.9787216q-0.48696518 0.97203064 -1.0817451 1.8524628q-0.59965897 0.9713745 -1.0349693 1.2808075q-0.42656326 0.296463 -0.6334419 0.10028076q-0.21562958 -0.18322754 -0.21191025 -0.8027954q0.012462616 -0.6325226 0.2691574 -1.5149231q0.2566986 -0.88238525 0.7572899 -1.9583435q0.5135422 -1.0671997 1.3091583 -2.189087l-5.5430984 -3.7412186q-0.6136246 1.1316147 -1.0750237 2.1774597q-0.4484501 1.0545883 -0.8346596 1.8495789q-0.3774624 0.7820358 -0.69200706 1.1918182q-0.30579758 0.3968277 -0.59947014 0.21747589q-0.45329094 -0.30594635 -0.5629444 -0.81352234q-0.09670067 -0.4988327 0.020048141 -1.1740723q0.13844681 -0.67944336 0.4683075 -1.4747543q0.3428135 -0.7865753 0.7769604 -1.6246033q0.43414688 -0.8380356 0.92043495 -1.6974258q0.49924088 -0.850647 0.95474625 -1.6365662q0.46846008 -0.7771683 0.84104156 -1.4682465q0.39427948 -0.695282 0.60975647 -1.2096252zm8.15979 10.257713q0.06122589 -0.09062958 0.21866989 -0.3236847q0.17039108 -0.22431183 0.34532547 -0.48325348q0.18368149 -0.27189636 0.3323784 -0.4920044q0.16164398 -0.21136475 0.22287369 -0.30199432q0.23480988 -0.12428284 0.49097824 -0.19644928q0.27787018 -0.07637024 0.47701645 -0.036209106q0.22084808 0.035949707 0.38012695 0.21885681q0.16802597 0.16996002 0.17861176 0.57297516l-0.07872009 0.11652374l-0.13994598 0.20716095q-0.0654335 0.06893921 -0.30966568 0.31881714q-0.22253418 0.24567413 -0.52345276 0.5515442q-0.29217148 0.2929306 -0.53640366 0.54280853q-0.24423599 0.24987793 -0.29671478 0.32756042q-0.19242859 0.28485107 -0.43801117 0.760025q-0.2326355 0.48391724 -0.4397049 1.0416412q-0.1983223 0.5447693 -0.3406372 1.1461945q-0.1423111 0.6014404 -0.14989471 1.1429901q-0.007583618 0.54156494 0.124103546 0.9886017q0.13169098 0.447052 0.5331764 0.71803284q0.49214554 0.33215332 1.0426636 0.32670593q0.55051804 -0.0054626465 1.1023903 -0.23620605q0.56481934 -0.22201538 1.0830574 -0.6262665q0.53993225 -0.40847778 1.0021553 -0.86938477q0.47517776 -0.45217896 0.84640884 -0.9179535q0.38418198 -0.45703125 0.62908936 -0.8195648q0.25365448 -0.37547302 0.4075699 -0.7428589q0.17560959 -0.3715973 0.31657028 -0.7477417q0.1539154 -0.36738586 0.2990799 -0.7218323q0.1668663 -0.35864258 0.37678528 -0.6693802q0.20117569 -0.29779053 0.48711395 -0.27445984q0.29468918 0.010383606 0.56666183 0.19394684q0.31082916 0.20979309 0.37389374 0.53512573q0.07601929 0.33406067 -0.008594513 0.7105255q-0.075870514 0.36351013 -0.2906723 0.765213q-0.21480179 0.40168762 -0.46845627 0.77716064q-0.2449112 0.36253357 -0.48527527 0.6904297q-0.23162079 0.3149414 -0.3628235 0.5091553q-0.35861588 0.530838 -0.88240814 1.1387024q-0.52378845 0.60787964 -1.1903801 1.1759186q-0.66659164 0.56803894 -1.4150963 1.0619507q-0.73975754 0.48095703 -1.5128098 0.7320862q-0.75135803 0.24691772 -1.5010223 0.21221924q-0.7496681 -0.034713745 -1.4101791 -0.48049927q-0.686409 -0.46328735 -0.99874115 -1.1453552q-0.29063034 -0.6862793 -0.28590012 -1.474823q0.0047302246 -0.7885437 0.22223663 -1.6408386q0.22625351 -0.86524963 0.560318 -1.6388702q0.34281158 -0.7865753 0.72834396 -1.4689026q0.39427948 -0.695282 0.71791077 -1.1743393zm7.0185776 6.3393936q0.27114868 -0.4013672 0.57912445 -0.43856812q0.32967377 -0.041412354 0.7700119 0.25578308l0.15541458 0.104904175q-0.1143837 0.28096008 -0.2812462 0.6396179q-0.1451683 0.35443115 -0.2647705 0.7826843q-0.097904205 0.42404175 -0.121967316 0.822525q-0.02406311 0.39848328 0.10830307 0.73287964q0.38031387 -0.53504944 0.971714 -0.8522339q0.60014725 -0.3301239 1.2381325 -0.46505737q0.64673233 -0.14787292 1.2749596 -0.100875854q0.63697433 0.03404236 1.1385384 0.24061584l0.33673096 0.2272644q0.7382164 0.49824524 1.0288467 1.1845245q0.31233215 0.6820679 0.30339432 1.4489288q-0.008934021 0.7668457 -0.28244781 1.5625q-0.2735138 0.79563904 -0.6551819 1.5559845q-0.36871338 0.76908875 -0.78889465 1.4468842q-0.41143417 0.66485596 -0.72631836 1.1309662l-1.126751 -0.7604828q0.5303612 -0.9804535 0.97813416 -1.9223938q0.17560959 -0.3715973 0.3515587 -0.7995148q0.1759491 -0.42793274 0.3039589 -0.8128052q0.1367569 -0.3978119 0.2126236 -0.7613373q0.08882141 -0.35476685 0.09051132 -0.63638306q-0.021022797 -0.108444214 -0.054656982 -0.2819519q-0.0248909 -0.1864624 -0.058525085 -0.3599701q-0.033634186 -0.17350769 -0.08476639 -0.32112122q-0.03817749 -0.13887024 -0.051128387 -0.14761353q-0.36582184 -0.43540955 -0.9166794 -0.3736267q-0.53790665 0.070510864 -1.1467972 0.41358948q-0.60014725 0.3301239 -1.2058487 0.8638611q-0.59275436 0.5424652 -1.1116638 1.0593872q-0.49721146 0.5126953 -0.84640884 0.91793823q-0.33624268 0.4139862 -0.41041946 0.49588013q-0.57221603 0.0096588135 -0.8302269 -0.33413696q-0.25801086 -0.34379578 -0.31097794 -0.9073639q-0.04421997 -0.5765228 0.07707214 -1.2863922q0.1429863 -0.7140808 0.3556137 -1.4754181q0.2255745 -0.752594 0.4858017 -1.5006409q0.2731743 -0.73931885 0.5152321 -1.3488312zm3.680046 21.937866q0.8677292 0.5856476 1.7598572 0.71650696q0.8833847 0.14379883 1.7169914 -0.08531189q0.8465538 -0.22036743 1.5649529 -0.7534332q0.73134613 -0.52433777 1.2386589 -1.2752991q0.26240158 -0.38841248 0.65213776 -1.049057q0.38973618 -0.66064453 0.81059647 -1.4510956q0.42085648 -0.79045105 0.78150177 -1.6592407q0.37359238 -0.8600464 0.6170006 -1.6948547q0.2563591 -0.8260803 0.28245163 -1.5625q0.03903961 -0.72769165 -0.23544693 -1.2145691q-0.59845734 0.04850769 -1.1619301 0.04522705q-0.55472183 -0.016235352 -1.0828667 -0.12763977q-0.52814484 -0.11140442 -1.0514107 -0.31376648q-0.50156784 -0.20655823 -1.0066605 -0.5474701q-0.660511 -0.44580078 -1.0609856 -0.8857422q-0.37877274 -0.44415283 -0.4971733 -0.938797q-0.10965347 -0.50756836 0.04981613 -1.0785675q0.1682167 -0.58395386 0.6580353 -1.3090057q0.34112167 -0.50494385 0.9108238 -0.81791687q0.57844925 -0.32592773 1.2685776 -0.48220825q0.7030792 -0.14755249 1.4572906 -0.1474762q0.7542076 6.1035156E-5 1.4730911 0.10824585q0.7276306 0.0952301 1.346096 0.32414246q0.6272125 0.2159729 1.0416489 0.49568176q0.40148926 0.27098083 0.64302063 0.47169495q0.24152374 0.20071411 0.35286713 0.42666626q0.13304138 0.22175598 0.12260437 0.5163269q-0.010437012 0.29457092 -0.1300354 0.7228241q-0.4508133 1.4488525 -0.9334259 3.1401672q-0.4696579 1.700058 -1.0436058 3.4428253q-0.565197 1.7298279 -1.2861481 3.411087q-0.7209511 1.6812592 -1.6568527 3.0666199q-0.83094025 1.230011 -1.7491608 1.8355713q-0.9269676 0.618515 -1.8512306 0.786438q-0.9330101 0.18087769 -1.8507042 -0.023788452q-0.9134903 -0.18296814 -1.6912346 -0.59480286q-0.7735443 -0.39012146 -1.4249687 -0.90519714q-0.6472206 -0.4933777 -1.0518951 -0.9550171q-0.40467834 -0.4616394 -0.5412483 -0.81773376q-0.13236237 -0.33439636 0.075870514 -0.36351013q0.19948578 -0.016159058 0.8043213 0.31666565q0.6048393 0.33280945 1.678772 1.2273102zm10.243942 -14.689117q-1.3058891 -0.5232239 -2.3026428 -0.55503845q-0.9880066 -0.04475403 -1.6788101 0.22418213q-0.6908035 0.26893616 -1.0578308 0.75639343q-0.35828018 0.47451782 -0.3872223 0.96395874q-0.015991211 0.4981842 0.26303864 0.9504242q0.29198456 0.46098328 0.9149933 0.6552582q0.6447029 0.19006348 1.5861244 0.052581787q0.9631157 -0.14169312 2.276104 -0.80130005q0.17493439 -0.25894165 0.39780807 -0.5609436q0.22287369 -0.3019867 0.3243065 -0.59169006q0.11017609 -0.30265808 0.055519104 -0.58461q-0.054656982 -0.2819519 -0.39138794 -0.5092163zm4.429203 3.272171q0.08747101 -0.12947083 0.19663239 -0.26315308q0.11791229 -0.14663696 0.23548889 -0.23693848q0.13052368 -0.08155823 0.28661346 -0.08930969q0.15608978 -0.007751465 0.33740997 0.11462402q0.15541077 0.104888916 0.18349457 0.4820099q0.036819458 0.36416626 -0.0138168335 0.85780334q-0.05064392 0.49365234 -0.14501953 1.0520325q-0.09437561 0.5583801 -0.19682312 1.0170593q-0.0894928 0.4674225 -0.182518 0.8005066q-0.08427429 0.3201294 -0.080070496 0.3418274q0.57458496 -0.40393066 1.2405014 -0.8593292q0.6746597 -0.468338 1.3917084 -0.77612305q0.7299957 -0.2990265 1.4799957 -0.3206482q0.7587509 -0.034576416 1.4710693 0.44618225q0.37557983 0.25349426 0.6206436 0.58854675q0.26675415 0.33085632 0.35538483 0.7299957q0.110328674 0.39492798 0.05581665 0.81056213q-0.04576111 0.40267944 -0.3169098 0.80404663q-0.22740936 0.3366394 -0.59560394 0.29548645q-0.36818695 -0.041137695 -0.7049179 -0.2684021l-0.15541077 -0.104904175l-0.21442413 -1.1061096q-0.025909424 -0.017486572 -0.021362305 -0.052124023q-0.038856506 -0.0262146 -0.0647583 -0.043701172q-0.0042037964 -0.021697998 -0.043060303 -0.047912598q-0.5309906 -0.35838318 -1.0517426 -0.2574463q-0.49905396 0.09675598 -0.9518585 0.43206787q-0.43110657 0.33111572 -0.80233765 0.79689026q-0.36248016 0.45283508 -0.63362885 0.8542023q-0.20992279 0.31072998 -0.368042 0.6564331q-0.14516449 0.3544464 -0.2773819 0.7176361q-0.12346649 0.350235 -0.26863098 0.7046814q-0.14516449 0.35443115 -0.37258148 0.69107056q-0.43733978 0.6473694 -1.1367035 0.17533875q-0.37557983 -0.25349426 -0.5318222 -0.9433136q-0.13453674 -0.69403076 -0.12913513 -1.5952301q0.027107239 -0.9053955 0.16757965 -1.9227905q0.15342712 -1.0086365 0.36252594 -1.9043121q0.2178421 -0.9086151 0.4430771 -1.6048889q0.2381897 -0.6875305 0.4306183 -0.97236633zm8.4636 3.5444946q0.096214294 -0.14241028 0.19242859 -0.28483582q0.10916901 -0.13368225 0.24843597 -0.22819519q0.1392746 -0.09449768 0.2866211 -0.08930969q0.15608978 -0.007751465 0.35035706 0.12336731q0.0129470825 0.008728027 0.038848877 0.0262146q0.025901794 0.017486572 0.05180359 0.034973145q0.043060303 0.047912598 0.0689621 0.06538391q0.026725769 0.602417 -0.18589783 1.3637543q-0.19967651 0.77008057 -0.4777298 1.600357q-0.2651062 0.8390198 -0.5347519 1.7126617q-0.24795532 0.8694458 -0.27017975 1.6838837q-0.009269714 0.82318115 0.29431152 1.5182037q0.31653595 0.70376587 1.1544952 1.193924q0.36263275 0.24475098 0.7198944 -0.060791016q0.36601257 -0.3184967 0.76836395 -0.91407776q0.42404938 -0.5997772 0.86626434 -1.3381195q0.45096588 -0.7512665 0.92715454 -1.3724213q0.48493958 -0.63409424 1.0115814 -0.99497986q0.5266495 -0.36087036 1.119545 -0.20576477q-0.06813049 0.51953125 -0.5159073 1.4614716q-0.44776917 0.9419403 -1.1352386 2.099121q-0.68746185 1.1571808 -1.5708847 2.4648743q-0.87467194 1.2947388 -1.8141022 2.5457764q-0.93068695 1.2380829 -1.8561478 2.328888q-0.91252136 1.0995331 -1.6714554 1.8880157q-0.74598694 0.7972107 -1.3030777 1.1752472q-0.55709076 0.3780365 -0.73773193 0.14302063q-0.113853455 -0.52926636 0.037200928 -1.1436462q0.16401672 -0.6056366 0.497406 -1.2666168q0.33759308 -0.6392822 0.80537415 -1.3038025q0.45903778 -0.6515808 0.95272064 -1.2986145q0.49368286 -0.64704895 0.98282623 -1.2594452q0.50209045 -0.6036682 0.86945343 -1.1474609q-0.5918808 -0.32408142 -1.0347366 -0.92459106q-0.42115784 -0.60472107 -0.6719208 -1.4337463q-0.24201965 -0.84198 -0.31852722 -1.8173065q-0.05480194 -0.9795227 0.120658875 -2.048706q0.17546082 -1.0691833 0.5938034 -2.1629486q0.43128967 -1.0850067 1.1397781 -2.1337585zm5.8933716 7.8797607q0.3586197 -0.530838 0.91217804 -1.0432129q0.56230164 -0.5253296 1.2411728 -0.97198486q0.69181824 -0.437912 1.4480515 -0.77578735q0.77793884 -0.3420868 1.5373611 -0.4893036q0.77238464 -0.13847351 1.4870605 -0.051986694q0.7276306 0.0952301 1.3233871 0.4973297q0.49214172 0.33215332 0.83206177 0.75009155q0.35287476 0.42668152 0.46707153 0.8996124q0.13588715 0.46873474 0.05480194 0.97953796q-0.081085205 0.5108032 -0.44844818 1.054596q-0.33673096 -0.22727966 -0.42149353 -0.5484009q-0.08476257 -0.32112122 -0.12612915 -0.65065q-0.03262329 -0.34248352 -0.12613678 -0.6506653q-0.09351349 -0.3081665 -0.41728973 -0.5267029q-0.47919464 -0.3234253 -1.0857239 -0.37461853q-0.5935745 -0.04246521 -1.249054 0.11836243q-0.65547943 0.16082764 -1.2990189 0.49935913q-0.63479614 0.32559204 -1.2006302 0.71658325q-0.5658417 0.39097595 -1.0235214 0.81726074q-0.45768738 0.42626953 -0.71134186 0.8017578q-0.53354645 0.78977966 -0.78150177 1.6592255q-0.2262497 0.86524963 -0.13578033 1.6803436q0.09921265 0.80215454 0.558548 1.5457306q0.48103333 0.73939514 1.3228607 1.3075714q0.53099823 0.35838318 1.1151505 0.5264282q0.60585785 0.16384888 1.1816025 0.28852844q0.5844879 0.11172485 1.1385345 0.24061584q0.5757446 0.124679565 1.0290375 0.4306183q0.05180359 0.034957886 0.15962219 0.12658691q0.107810974 0.09161377 0.19392395 0.18743896q0.086120605 0.095825195 0.0983963 0.21720886q0.033973694 0.1171875 -0.0622406 0.25961304q-0.3761139 0.5567322 -1.0659027 0.6566925q-0.6680908 0.09576416 -1.4170837 -0.051589966q-0.740242 -0.16029358 -1.4448242 -0.48503113q-0.69163513 -0.31599426 -1.0931168 -0.5869751q-1.1785583 -0.7954407 -1.9350967 -1.8527374q-0.75653076 -1.0572815 -1.0570755 -2.2592163q-0.2788391 -1.2061462 -0.050224304 -2.4656677q0.23736572 -1.2724609 1.0508118 -2.4765625zm10.514816 5.362503q0.08746338 -0.12947083 0.19663239 -0.26315308q0.11791229 -0.1466217 0.23548126 -0.23693848q0.13053131 -0.08155823 0.2866211 -0.08930969q0.15608978 -0.007751465 0.33740234 0.11462402q0.1554184 0.104888916 0.18349457 0.4820099q0.036827087 0.36416626 -0.0138168335 0.8578186q-0.05063629 0.49363708 -0.1450119 1.0520172q-0.09437561 0.5583801 -0.19682312 1.0170593q-0.0894928 0.4674225 -0.182518 0.8005066q-0.08427429 0.32014465 -0.080070496 0.3418274q0.57457733 -0.40393066 1.2404938 -0.8593292q0.67466736 -0.468338 1.3917084 -0.7761078q0.7299957 -0.29904175 1.4800034 -0.32066345q0.7587509 -0.034576416 1.4710617 0.4461975q0.37558746 0.25349426 0.6206436 0.58854675q0.26675415 0.33084106 0.35538483 0.72998047q0.110328674 0.39492798 0.05582428 0.81056213q-0.04576111 0.40267944 -0.3169098 0.80404663q-0.22741699 0.3366394 -0.59560394 0.29548645q-0.36818695 -0.041137695 -0.7049179 -0.2684021l-0.1554184 -0.104904175l-0.21442413 -1.1061096q-0.025901794 -0.017486572 -0.021362305 -0.052124023q-0.038848877 -0.0262146 -0.06475067 -0.043701172q-0.0042037964 -0.02168274 -0.043060303 -0.047912598q-0.53099823 -0.35838318 -1.0517502 -0.25743103q-0.49904633 0.09674072 -0.9518509 0.4320526q-0.43110657 0.33111572 -0.80233765 0.79689026q-0.36248016 0.45283508 -0.63362885 0.8542023q-0.20992279 0.31072998 -0.368042 0.6564331q-0.14516449 0.3544464 -0.2773819 0.7176361q-0.12346649 0.350235 -0.26863098 0.7046814q-0.14517212 0.3544464 -0.37258148 0.69107056q-0.43733978 0.6473694 -1.1367035 0.175354q-0.37558746 -0.25349426 -0.5318222 -0.94332886q-0.13454437 -0.69403076 -0.12913513 -1.5952301q0.02709961 -0.9053955 0.16757965 -1.9227753q0.1534195 -1.0086517 0.3625183 -1.9043274q0.2178421 -0.9086151 0.44308472 -1.6048889q0.2381897 -0.68751526 0.4306183 -0.97236633zm5.460083 8.548706q0.6472626 -0.95809937 1.6386414 -1.476593q1.0130844 -0.5226898 2.131958 -0.6158142q1.1276169 -0.1060791 2.274559 0.17790222q1.1469498 0.28399658 2.0794373 0.9133606q0.53099823 0.35838318 0.7050705 0.96598816q0.18701935 0.6163635 0.12661743 1.2919159q-0.05165863 0.6626282 -0.27655792 1.3025665q-0.2032013 0.6357422 -0.47434998 1.0371094q-0.57728577 0.8545227 -1.5427704 1.3904877q-0.9567337 0.5230255 -2.0370865 0.69869995q-1.0803528 0.17567444 -2.1845856 -0.0040740967q-1.0825272 -0.18395996 -1.9113998 -0.74339294q-0.7382202 -0.49824524 -1.0771255 -1.085144q-0.33016205 -0.5998535 -0.3610916 -1.2239685q-0.02218628 -0.63705444 0.22020721 -1.302887q0.25113678 -0.67878723 0.68847656 -1.3261566zm1.2031097 1.0382233q-0.27114868 0.4013672 -0.4075699 0.74287415q-0.1364212 0.3414917 -0.10379791 0.6839752q0.041366577 0.3295288 0.24757385 0.6383667q0.21915436 0.31756592 0.6465454 0.6060333q0.5698471 0.38461304 1.3496246 0.45848083q0.7885208 0.060928345 1.5654373 -0.11218262q0.77692413 -0.17311096 1.4425049 -0.57218933q0.6872711 -0.40327454 1.0546341 -0.94706726q0.1661911 -0.2460022 0.3155594 -0.5787506q0.162323 -0.3240204 0.21195221 -0.64868164q0.062576294 -0.31593323 -0.030937195 -0.62409973q-0.08055878 -0.29943848 -0.39138794 -0.50923157q-0.27197266 -0.18356323 -0.7787552 -0.24284363q-0.49803925 -0.07223511 -1.1136551 -0.054153442q-0.5939102 0.013870239 -1.249054 0.11836243q-0.63344574 0.10029602 -1.2108765 0.25723267q-0.56868744 0.14399719 -0.9903717 0.34951782q-0.40873718 0.21424866 -0.55742645 0.4343567zm7.2627335 2.4889526q0.43733978 -0.6473694 1.2033386 -1.1671753q0.76599884 -0.5198059 1.630043 -0.7660675q0.87280273 -0.25920105 1.7481079 -0.21510315q0.8840637 0.031158447 1.5704727 0.49443054q0.36263275 0.24475098 0.6248474 0.61024475q0.27095795 0.35253906 0.39844513 0.77789307q0.12748718 0.425354 0.077178955 0.8626709q-0.0286026 0.43312073 -0.29975128 0.8344879q-0.27197266 -0.18356323 -0.45716095 -0.3839569q-0.17643738 -0.21333313 -0.34412384 -0.43962097q-0.15894318 -0.2392273 -0.32242584 -0.44381714q-0.16348267 -0.2046051 -0.40956116 -0.37068176q-0.6216507 -0.41957092 -1.241806 -0.36686707q-0.59845734 0.04850769 -1.1552124 0.37020874q-0.55674744 0.3217163 -1.0147705 0.8043213q-0.44506836 0.49134827 -0.76869965 0.97039795q-0.052482605 0.077682495 -0.18822479 0.3065338q-0.1269989 0.2158966 -0.29318237 0.4618988q-0.1444931 0.24179077 -0.29319 0.4618988q-0.12699127 0.2158966 -0.16651917 0.3023224q-0.076545715 0.47616577 -0.061080933 0.78822327q0.03716278 0.30784607 0.14850616 0.5337982q0.12429047 0.23469543 0.31401825 0.40045166q0.21142578 0.1615448 0.49635315 0.35385132q0.40148163 0.27096558 0.7780838 0.35549927q0.39829254 0.08030701 0.7710266 0.08680725q0.37272644 0.006515503 0.7457962 -0.043304443q0.37306976 -0.049819946 0.7328491 -0.05204773q0.38147736 -0.006439209 0.7580719 0.07807922q0.37660217 0.08451843 0.7651367 0.34675598q-0.50730896 0.75094604 -1.1728897 1.1500092q-0.66558075 0.39907837 -1.4463654 0.49417114q-0.7590866 0.09089661 -1.5682907 -0.13479614q-0.796257 -0.21694946 -1.5603714 -0.7326813q-0.7252655 -0.48950195 -0.97569275 -1.3748627q-0.23748016 -0.8766022 -0.17084503 -1.8684387q0.079582214 -0.983078 0.4017105 -1.9344177q0.335083 -0.94259644 0.7461777 -1.551117z" fill-rule="nonzero"></path></g></svg>

